<svg width="800" height="800" viewBox="0 0 800 800" fill="none" xmlns="http://www.w3.org/2000/svg">
<path d="M425 87.5C487.5 83.25 531.25 87.5 621.875 175C712.5 262.5 721.125 325 723.5 403.125C724.695 441.036 718.251 478.799 704.55 514.168C690.849 549.537 670.172 581.787 643.75 609C593 659 500.875 723.125 382.5 711.375C264.125 699.625 212.5 670.5 154.5 600C96.5001 529.5 77.1251 425 75.8751 381.875C74.6251 338.75 97.0001 268.625 151.75 205.375C206.5 142.125 251.75 100 425 87.5Z" fill="#1D1D1B"/>
<path d="M382.125 115.5C434.5 110.375 485.75 108.875 530.625 131.875C575.5 154.875 642.375 231.875 653.25 245.125C660.051 253.309 665.456 262.558 669.25 272.5C669.25 272.5 647.375 287.5 655.625 325.625C663.875 363.75 678.25 379.5 684.5 384.625C688.67 387.913 693.304 390.567 698.25 392.5C698.25 392.5 702.125 472.875 681 515.875C659.875 558.875 600 635 546.25 655.375C492.5 675.75 397.75 718.625 300 673.25C202.25 627.875 173.25 585 137.5 512.5C101.75 440 98.6251 367 116.125 314.375C133.625 261.75 190 192.5 235.75 161.25C281.5 130 342.375 119.375 382.125 115.5Z" fill="#E6E4DA"/>
<path d="M675 287.5C677.25 287.5 684.75 309.75 690.625 333.25C694.178 344.598 695.244 356.578 693.75 368.375C682.328 359.228 673.993 346.792 669.875 332.75C664.25 310.75 672 287.5 675 287.5Z" fill="white"/>
<path d="M580.25 195.625C593.437 203.344 605.193 213.281 615 225C614.25 227.75 616.125 235.125 612.25 232.375C608.375 229.625 577.875 206.25 577.125 204.25C576.898 202.666 577.065 201.051 577.61 199.547C578.154 198.043 579.061 196.696 580.25 195.625Z" fill="#1D1D1B"/>
<path d="M579 235.75C594.634 247.473 609.153 260.612 622.375 275C622.539 277.649 621.74 280.269 620.125 282.375C620.125 282.375 577.5 245.75 576.375 244.125C575.25 242.5 579 235.75 579 235.75Z" fill="#1D1D1B"/>
<path d="M572.75 265.5C587.717 275.718 601.732 287.265 614.625 300C614.625 303.5 613.375 308.25 612.25 308.625C611.125 309 565.75 280.125 566.5 276.625C567.25 273.125 570.5 264.375 572.75 265.5Z" fill="#1D1D1B"/>
<path d="M478.625 225C483.375 222.895 488.58 222.023 493.757 222.465C498.934 222.907 503.916 224.648 508.241 227.528C512.566 230.407 516.094 234.331 518.5 238.937C520.905 243.542 522.109 248.68 522 253.875C521.832 260.261 520.164 266.519 517.132 272.142C514.099 277.766 509.788 282.597 504.544 286.247C499.3 289.897 493.272 292.263 486.946 293.153C480.62 294.044 474.172 293.435 468.125 291.375C448.625 280.75 445.875 237.5 478.625 225Z" fill="#1D1D1B"/>
<path d="M481.5 234.75C484.788 233.299 488.389 232.7 491.97 233.01C495.551 233.319 498.996 234.527 501.986 236.521C504.977 238.514 507.416 241.23 509.079 244.416C510.742 247.602 511.575 251.157 511.5 254.75C511.334 259.164 510.136 263.477 508.001 267.343C505.866 271.21 502.855 274.522 499.208 277.014C495.562 279.506 491.382 281.108 487.004 281.691C482.626 282.275 478.172 281.824 474 280.375C460.75 273.625 458.75 243.625 481.5 234.75Z" fill="white"/>
<path d="M190 260C191.5 260 204.875 266.625 203.625 267.875C191.79 280.138 182.974 294.989 177.875 311.25C171.625 334.625 174.375 343.625 170.5 344C166.625 344.375 158 344 157.125 341.625C158.39 327.307 161.847 313.268 167.375 300C174 285 185.75 261.625 190 260Z" fill="#1D1D1B"/>
<path d="M307.125 258.875C339.375 250.75 392.375 267.875 400.125 330C407.875 392.125 336.125 423.75 285.75 392.5C235.375 361.25 212.5 282.625 307.125 258.875Z" fill="#1D1D1B"/>
<path d="M311.75 282.125C319.084 280.602 326.661 280.681 333.962 282.357C341.262 284.033 348.115 287.267 354.05 291.837C359.985 296.407 364.862 302.206 368.349 308.835C371.835 315.465 373.848 322.77 374.25 330.25C379.5 372.375 330.875 393.75 296.75 372.875C262.625 352 247.75 298.25 311.75 282.125Z" fill="white"/>
<path d="M185.75 417C192.625 414 211.875 417 212.625 442.875C213.375 468.75 196.25 483.125 177.5 478.375C158.75 473.625 149 433.125 185.75 417Z" fill="#1D1D1B"/>
<path d="M187.5 431.125C195.375 428.625 204.375 437.75 203.125 449.125C201.875 460.5 191.875 473.25 179.75 468.625C176.314 466.351 173.639 463.099 172.068 459.29C170.497 455.48 170.103 451.288 170.937 447.253C171.771 443.218 173.794 439.525 176.747 436.65C179.699 433.776 183.444 431.851 187.5 431.125Z" fill="white"/>
<path d="M375 498.75C392.25 489.5 409.75 495.125 414.125 513.875C415.605 518.581 415.95 523.571 415.132 528.436C414.314 533.301 412.355 537.903 409.417 541.865C406.478 545.828 402.643 549.039 398.226 551.235C393.808 553.431 388.933 554.55 384 554.5C377.475 554.042 371.296 551.392 366.466 546.979C361.637 542.567 358.442 536.651 357.4 530.193C356.357 523.735 357.528 517.114 360.724 511.406C363.919 505.698 368.95 501.238 375 498.75Z" fill="#1D1D1B"/>
<path d="M381 510C383.325 508.226 386.113 507.165 389.029 506.943C391.944 506.721 394.861 507.35 397.427 508.752C399.993 510.154 402.097 512.269 403.486 514.842C404.874 517.415 405.487 520.336 405.25 523.25C405.431 526.554 404.775 529.85 403.34 532.832C401.906 535.813 399.742 538.384 397.047 540.305C394.353 542.226 391.217 543.434 387.931 543.818C384.644 544.202 381.314 543.748 378.25 542.5C365.375 536.25 364.625 519.75 381 510Z" fill="white"/>
<path d="M259.5 531.5C261.125 533.125 259.5 540.125 268.875 547.875C278.25 555.625 283 555.75 282.125 558.5C281.25 561.25 280.625 564.375 277.875 564.375C270.837 561.885 264.435 557.873 259.125 552.625C252.875 546.75 246.625 533.875 249.75 532.625C252.938 531.833 256.215 531.455 259.5 531.5Z" fill="#1D1D1B"/>
<path d="M233 534.625C236.835 544.545 242.615 553.597 250 561.25C262.5 573.75 270.375 576.375 269.125 579.125C267.875 581.875 264.5 585.75 261.75 584.625C252.097 577.206 243.218 568.83 235.25 559.625C227.75 551 220 538.5 221.875 536.625C223.75 534.75 233 534.625 233 534.625Z" fill="#1D1D1B"/>
<path d="M209.125 538.125C215.899 550.784 223.762 562.829 232.625 574.125C246.25 589.375 253.25 590.875 252.5 593.25C252.21 594.583 251.465 595.774 250.393 596.618C249.321 597.462 247.989 597.906 246.625 597.875C242.75 597.875 225.875 582.625 213.875 568.625C201.875 554.625 195.5 544.375 197.75 542.5C201.337 540.558 205.161 539.088 209.125 538.125Z" fill="#1D1D1B"/>
<path d="M488.875 592.875C506.875 591.75 515 599.875 510.25 620.625C505.5 641.375 488.375 639.375 477.5 633.125C466.625 626.875 456 594.75 488.875 592.875Z" fill="#1D1D1B"/>
<path d="M489.625 603C491.674 603.137 493.658 603.778 495.401 604.864C497.144 605.951 498.593 607.45 499.619 609.23C500.644 611.009 501.216 613.014 501.282 615.067C501.349 617.12 500.908 619.158 500 621C499.067 622.723 497.686 624.161 496.003 625.164C494.319 626.166 492.397 626.696 490.438 626.696C488.478 626.696 486.556 626.166 484.872 625.164C483.189 624.161 481.808 622.723 480.875 621C479.985 619.273 479.51 617.363 479.488 615.42C479.465 613.478 479.895 611.557 480.745 609.81C481.594 608.063 482.839 606.538 484.38 605.356C485.922 604.174 487.717 603.367 489.625 603Z" fill="white"/>
<path d="M560.25 444C591.625 436.625 606.75 446.375 615.375 479.5C624 512.625 593.125 536.25 568.875 541.25C544.625 546.25 533 544.375 519.625 513.875C506.25 483.375 517 454.125 560.25 444Z" fill="#1D1D1B"/>
<path d="M556.75 455.75C567.125 452.5 589.625 445.125 598.625 469.75C607.625 494.375 606.375 509.625 586.125 522.125C565.875 534.625 557.125 537.5 537.5 520.125C517.875 502.75 514.625 469 556.75 455.75Z" fill="white"/>
<path d="M659.5 400C670.077 408.943 679.187 419.487 686.5 431.25C686.5 434.375 684.5 439 683 438.25C671.992 429.408 661.9 419.484 652.875 408.625C653.25 405.75 656.75 400 659.5 400Z" fill="#1D1D1B"/>
<path d="M641.5 418.625C641.5 421.125 679 458.875 679 462.375C679 465.875 677.875 470.625 676.375 469.75C661.624 456.199 647.762 441.71 634.875 426.375C635.75 425 641.5 417.5 641.5 418.625Z" fill="#1D1D1B"/>
<path d="M639.625 455C652.098 466.418 663.48 478.972 673.625 492.5C673.625 495.25 671.625 501.875 669.625 501C667.625 500.125 632.125 464.75 632.125 463.5C632.125 462.25 637.5 454.5 639.625 455Z" fill="#1D1D1B"/>
</svg>
