<svg width="800" height="800" viewBox="0 0 800 800" fill="none" xmlns="http://www.w3.org/2000/svg">
<path d="M298.125 45.625C309.625 44.625 326.5 53.125 321.375 110C316.25 166.875 280.875 217 274.25 292.25C267.625 367.5 284.875 475 284.875 475C284.828 463.003 286.212 451.044 289 439.375C300.389 436.463 312.24 435.825 323.875 437.5C323.875 440.125 331 539.875 333.625 540.875C339.538 541.926 345.506 542.636 351.5 543C351.5 543 339 456.25 369.625 437.125C400.25 418 437.5 422.125 449.625 445.25C461.75 468.375 462.125 535 462.125 535C462.125 535 474.625 536.75 474.625 535C474.625 533.25 472.125 432.375 474.625 430.75C477.125 429.125 506.25 427.75 506.875 430.75C508.393 442.884 511.029 454.851 514.75 466.5C516.75 466.5 539.75 404 535.75 315.75C531.357 254.905 517.831 195.068 495.625 138.25C492.125 127.875 474.875 90.375 486.625 62.5C498.375 34.625 536.625 40.625 562.5 75C588.375 109.375 662.5 219.5 683.75 332C705 444.5 687.5 558.25 663.625 616.25C639.75 674.25 607.125 731.5 591.25 738.75C575.375 746 530.25 741.125 516.25 737.375C502.25 733.625 472.125 724.875 462.875 728.5C453.625 732.125 434.375 753.5 394.625 747.75C354.875 742 340 716.5 317.25 721.375C294.5 726.25 244.25 754.75 231.25 755.125C218.25 755.5 188 735.625 158 676C128 616.375 107.375 498.875 107.75 423.25C107.182 343.38 127.246 264.716 166 194.875C207.125 123.375 248.25 50 298.125 45.625Z" fill="#1D1D1B"/>
<path d="M288.375 68.875C293.625 67.875 299 108.625 289.625 145.375C280.25 182.125 253.25 235.5 248.375 300C245.508 367.137 251.348 434.363 265.75 500C280.506 548.367 300.94 594.816 326.625 638.375C335.25 649 335.875 650.125 339.125 649C340.591 648.112 341.807 646.866 342.659 645.379C343.512 643.892 343.973 642.214 344 640.5C330.255 613.507 318.798 585.408 309.75 556.5C301.5 523.5 296.25 503.25 296.25 503.25C296.25 503.25 294.25 454.375 297.875 453.25C301.5 452.125 312.5 450 312.5 451.625C312.5 453.25 320.125 550.375 323.375 552.375C326.625 554.375 350.5 554.625 351.625 557.75C352.75 560.875 366.125 693.375 370.75 695.25C375.375 697.125 388.25 688 389.25 684.875C390.25 681.75 382 617.875 379.875 578.75C377.75 539.625 377.5 525 379 525C390.96 520.518 403.801 518.891 416.5 520.25C434.875 522.875 437.125 531.625 437.125 531.625C437.125 531.625 425.625 651.875 423 669.125C420.375 686.375 415.875 690.75 420.625 692.125C428.441 692.583 436.241 690.989 443.25 687.5C443.25 685.5 452.375 606.5 455.75 580.875C459.125 555.25 456.875 550.625 459.5 550.625C468.562 550.892 477.624 550.095 486.5 548.25C486.5 546.125 483.5 446.125 486.5 445C489.442 444.076 492.63 444.345 495.375 445.75C497 446.75 505.5 506.5 505.625 510.125C497.502 542.612 486.973 574.45 474.125 605.375C460.375 635.5 454.75 640.875 457.5 642.875C462.895 644.676 468.73 644.676 474.125 642.875C500.212 594.682 520.4 543.522 534.25 490.5C552.5 417.375 562.5 326.375 553.625 260C544.965 211.834 531.178 164.733 512.5 119.5C510.683 112.529 509.429 105.422 508.75 98.25C508.75 94.125 507 73.25 514.75 72C522.5 70.75 563.5 114.375 588.75 157.375C614 200.375 614.75 210.75 614.75 210.75C614.75 210.75 577.25 212.875 578.5 216.5C588.114 272.116 593.09 328.435 593.375 384.875C591.25 454.75 570.5 546.125 572.75 551.25C575 556.375 594 566.25 612.5 572C624.576 574.878 635.799 580.576 645.25 588.625C645.25 590.75 627.375 637.125 627.375 637.125C627.375 637.125 605.875 596.625 602.375 597.25C598.875 597.875 592.5 600.625 594.75 604.25C597 607.875 621 644.625 620.5 646.75C620 648.875 612.5 663.125 612.5 663.125C602.446 645.275 591.343 628.036 579.25 611.5C576.125 611.5 569 617.5 570.625 621.625C572.25 625.75 605 671.625 604.5 674.25C601.292 682.166 597.092 689.642 592 696.5C592 695 558.875 632.875 555.75 634C552.625 635.125 548.625 640 549.25 641.5C549.875 643 588 702.375 586.75 706.125C585.5 709.875 584.375 716.625 581.25 716.625C578.125 716.625 574 717.875 572.375 716.625C570.75 715.375 537.75 654.125 534.125 654.125C530.5 654.125 525.75 655.375 527.375 657.875C529 660.375 560.5 717.875 558.875 716.875C557.25 715.875 538.375 712.375 538.375 712.375C538.375 712.375 514.875 672.875 510.625 673C506.375 673.125 503 675.875 504.125 678.375C505.25 680.875 525 710.5 523.125 710C505.008 705.747 486.637 702.658 468.125 700.75C461.875 702 434.875 721 408.875 722.875C382.875 724.75 350 700 331 699.125C312 698.25 252.75 728 243.5 728.25C234.25 728.5 222.625 728.875 189.75 673.625C156.875 618.375 146.125 575.875 148.125 572.625C150.125 569.375 197 548.875 205.25 545C215.234 540.894 224.816 535.872 233.875 530C223.323 482.51 216.014 434.357 212 385.875C209.922 336.352 211.719 286.743 217.375 237.5C219.25 230.125 221.875 217 218.25 215.625C214.625 214.25 177.625 216.25 178.125 214.75C193.435 183.706 210.807 153.722 230.125 125C253.125 92.75 271.875 71.875 288.375 68.875Z" fill="#C4BEC4"/>
<path d="M261.125 113.375C263.875 110.75 271.5 112.625 269.5 117.875C267.5 123.125 248.75 171.625 245.125 172.25C241.5 172.875 234.125 171 234 167.875C241.317 148.9 250.398 130.653 261.125 113.375Z" fill="#1D1D1B"/>
<path d="M172.75 227C177.875 226.375 206 224.5 205.125 227.625C196.882 277.97 193.991 329.046 196.5 380C200.875 456.5 219.5 523.125 216 526.375C193.12 538.354 169.389 548.632 145 557.125C145 555.125 135 482.125 136.5 480.75C138 479.375 166.625 462.125 167.625 459.5C168.625 456.875 168.375 449.125 166.25 449.125C164.125 449.125 133 468.875 133.5 466.75C134 464.625 132.625 437.125 133.5 434.5C134.375 431.875 160.75 421.125 161.25 419.625C161.75 418.125 159.875 407.125 157.75 407.125C155.625 407.125 132.75 421.375 131.5 418.875C130.894 403.739 131.311 388.58 132.75 373.5C134.375 372.375 165.25 361 165.75 360C166.25 359 164.875 348.5 162.875 348.625C160.875 348.75 134.5 358.875 134.5 358.875C139.02 331.534 145.325 304.518 153.375 278C158.736 260.603 165.208 243.568 172.75 227Z" fill="#E73ED6"/>
<path d="M375 481.5C373.5 481.5 375 444 405.125 443.125C435.25 442.25 436.375 477.625 436.375 477.625C415.969 472.992 394.661 474.337 375 481.5Z" fill="#C4BEC4"/>
<path d="M375 492.5C374 489.875 394.125 486.125 406.625 485.75C416.164 485.891 425.65 487.192 434.875 489.625C434.875 489.625 437.625 512 435.5 512.5C424.741 509.62 413.637 508.232 402.5 508.375C388.5 510.25 375.625 512.75 375.625 512.75C375.939 505.994 375.73 499.224 375 492.5Z" fill="#E73ED6"/>
<path d="M594.875 227.5C597.875 226.875 617.125 222.75 619.25 225.25C621.375 227.75 644.25 290.125 650 312.75C655.75 335.375 661.75 358.75 661.75 358.75C661.75 358.75 630.625 343.625 628.5 346.25C626.375 348.875 625 361.625 627 362.5C639.848 367.22 652.375 372.774 664.5 379.125C664.5 380.75 667.875 404.125 668.625 409.75C669.375 415.375 669.625 425.875 669.625 425.875C669.625 425.875 632.875 400.875 629.875 405.25C627.365 408.899 626.378 413.384 627.125 417.75C628.25 419.375 668.625 445.75 669.125 447.25C669.946 453.138 669.946 459.112 669.125 465C668.25 469.25 667.375 474.5 667.375 474.5C667.375 474.5 629.875 457.25 627.875 459.5C625.875 461.75 623.5 470.5 625.625 472C627.75 473.5 667.25 487.5 667.375 492.125C667.5 496.75 662.25 531.375 660.625 544.5C659 557.625 656.625 568 654.5 568.125C652.375 568.25 592 548 589.75 546C587.5 544 604.625 467.375 608 404.25C611.375 341.125 594.875 227.5 594.875 227.5Z" fill="#E73ED6"/>
<path d="M188.625 586C188.625 586 198.25 579.5 198.875 581.625C199.5 583.75 223.875 638.75 223.875 641.25C223.875 643.75 217.25 649.25 214.625 648.875C212 648.5 190.75 590.125 188.625 586Z" fill="#1D1D1B"/>
</svg>
